<svg xmlns="http://www.w3.org/2000/svg" xmlns:xlink="http://www.w3.org/1999/xlink" xmlns:sketch="http://www.bohemiancoding.com/sketch/ns" width="25px" height="91px" viewBox="0 0 25 91" version="1.1">
    <!-- Generator: Sketch 3.5.2 (25235) - http://www.bohemiancoding.com/sketch -->
    <title>g4497</title>
    <desc>Created with Sketch.</desc>
    <defs/>
        <g id="g4497" sketch:type="MSLayerGroup" transform="rotate(90) translate(310.000000, 50.000000) scale(7,7)" stroke="#000000" stroke-width="0.5">
            <path d="M2.58233374,89.2810141 L2.58233374,86.719847 L0,86.719847 L0,89.2810141 L2.58233374,89.2810141" id="path4503" sketch:type="MSShapeGroup" channels="0"/>
            <path d="M5.56683421,89.2810141 L5.56683421,86.719847 L3.00566714,86.719847 L3.00566714,89.2810141 L5.56683421,89.2810141" id="path4505" sketch:type="MSShapeGroup" channels="1"/>
            <path d="M8.55133468,89.2810141 L8.55133468,86.719847 L5.99016761,86.719847 L5.99016761,89.2810141 L8.55133468,89.2810141" id="path4507" sketch:type="MSShapeGroup" channels="2"/>
            <path d="M11.5358352,89.2810141 L11.5358352,86.719847 L8.97466808,86.719847 L8.97466808,89.2810141 L11.5358352,89.2810141" id="path4509" sketch:type="MSShapeGroup" channels="3"/>
            <path d="M14.5415023,89.2810141 L14.5415023,86.719847 L11.9591686,86.719847 L11.9591686,89.2810141 L14.5415023,89.2810141" id="path4511" sketch:type="MSShapeGroup" channels="4"/>
            <path d="M17.5260028,89.2810141 L17.5260028,86.719847 L14.9648357,86.719847 L14.9648357,89.2810141 L17.5260028,89.2810141" id="path4513" sketch:type="MSShapeGroup" channels="5"/>
            <path d="M20.5105032,89.2810141 L20.5105032,86.719847 L17.9493362,86.719847 L17.9493362,89.2810141 L20.5105032,89.2810141" id="path4515" sketch:type="MSShapeGroup" channels="6"/>
            <path d="M23.4950037,89.2810141 L23.4950037,86.719847 L20.9338366,86.719847 L20.9338366,89.2810141 L23.4950037,89.2810141" id="path4517" sketch:type="MSShapeGroup" channels="7"/>
            <path d="M2.58233374,86.2965136 L2.58233374,83.7353465 L0,83.7353465 L0,86.2965136 L2.58233374,86.2965136" id="path4519" sketch:type="MSShapeGroup" channels="8"/>
            <path d="M5.56683421,86.2965136 L5.56683421,83.7353465 L3.00566714,83.7353465 L3.00566714,86.2965136 L5.56683421,86.2965136" id="path4521" sketch:type="MSShapeGroup" channels="9"/>
            <path d="M8.55133468,86.2965136 L8.55133468,83.7353465 L5.99016761,83.7353465 L5.99016761,86.2965136 L8.55133468,86.2965136" id="path4523" sketch:type="MSShapeGroup" channels="10"/>
            <path d="M11.5358352,86.2965136 L11.5358352,83.7353465 L8.97466808,83.7353465 L8.97466808,86.2965136 L11.5358352,86.2965136" id="path4525" sketch:type="MSShapeGroup" channels="11"/>
            <path d="M14.5415023,86.2965136 L14.5415023,83.7353465 L11.9591686,83.7353465 L11.9591686,86.2965136 L14.5415023,86.2965136" id="path4527" sketch:type="MSShapeGroup" channels="12"/>
            <path d="M17.5260028,86.2965136 L17.5260028,83.7353465 L14.9648357,83.7353465 L14.9648357,86.2965136 L17.5260028,86.2965136" id="path4529" sketch:type="MSShapeGroup" channels="13"/>
            <path d="M20.5105032,86.2965136 L20.5105032,83.7353465 L17.9493362,83.7353465 L17.9493362,86.2965136 L20.5105032,86.2965136" id="path4531" sketch:type="MSShapeGroup" channels="14"/>
            <path d="M23.4950037,86.2965136 L23.4950037,83.7353465 L20.9338366,83.7353465 L20.9338366,86.2965136 L23.4950037,86.2965136" id="path4533" sketch:type="MSShapeGroup" channels="15"/>
            <path d="M2.58233374,83.2908464 L2.58233374,80.7296794 L0,80.7296794 L0,83.2908464 L2.58233374,83.2908464" id="path4535" sketch:type="MSShapeGroup" channels="16"/>
            <path d="M5.56683421,83.2908464 L5.56683421,80.7296794 L3.00566714,80.7296794 L3.00566714,83.2908464 L5.56683421,83.2908464" id="path4537" sketch:type="MSShapeGroup" channels="17"/>
            <path d="M8.55133468,83.2908464 L8.55133468,80.7296794 L5.99016761,80.7296794 L5.99016761,83.2908464 L8.55133468,83.2908464" id="path4539" sketch:type="MSShapeGroup" channels="18"/>
            <path d="M11.5358352,83.2908464 L11.5358352,80.7296794 L8.97466808,80.7296794 L8.97466808,83.2908464 L11.5358352,83.2908464" id="path4541" sketch:type="MSShapeGroup" channels="19"/>
            <path d="M14.5415023,83.2908464 L14.5415023,80.7296794 L11.9591686,80.7296794 L11.9591686,83.2908464 L14.5415023,83.2908464" id="path4543" sketch:type="MSShapeGroup" channels="20"/>
            <path d="M17.5260028,83.2908464 L17.5260028,80.7296794 L14.9648357,80.7296794 L14.9648357,83.2908464 L17.5260028,83.2908464" id="path4545" sketch:type="MSShapeGroup" channels="21"/>
            <path d="M20.5105032,83.2908464 L20.5105032,80.7296794 L17.9493362,80.7296794 L17.9493362,83.2908464 L20.5105032,83.2908464" id="path4547" sketch:type="MSShapeGroup" channels="22"/>
            <path d="M23.4950037,83.2908464 L23.4950037,80.7296794 L20.9338366,80.7296794 L20.9338366,83.2908464 L23.4950037,83.2908464" id="path4549" sketch:type="MSShapeGroup" channels="23"/>
            <path d="M2.58233374,80.306346 L2.58233374,77.7451789 L0,77.7451789 L0,80.306346 L2.58233374,80.306346" id="path4551" sketch:type="MSShapeGroup" channels="24"/>
            <path d="M5.56683421,80.306346 L5.56683421,77.7451789 L3.00566714,77.7451789 L3.00566714,80.306346 L5.56683421,80.306346" id="path4553" sketch:type="MSShapeGroup" channels="25"/>
            <path d="M8.55133468,80.306346 L8.55133468,77.7451789 L5.99016761,77.7451789 L5.99016761,80.306346 L8.55133468,80.306346" id="path4555" sketch:type="MSShapeGroup" channels="26"/>
            <path d="M11.5358352,80.306346 L11.5358352,77.7451789 L8.97466808,77.7451789 L8.97466808,80.306346 L11.5358352,80.306346" id="path4557" sketch:type="MSShapeGroup" channels="27"/>
            <path d="M14.5415023,80.306346 L14.5415023,77.7451789 L11.9591686,77.7451789 L11.9591686,80.306346 L14.5415023,80.306346" id="path4559" sketch:type="MSShapeGroup" channels="28"/>
            <path d="M17.5260028,80.306346 L17.5260028,77.7451789 L14.9648357,77.7451789 L14.9648357,80.306346 L17.5260028,80.306346" id="path4561" sketch:type="MSShapeGroup" channels="29"/>
            <path d="M20.5105032,80.306346 L20.5105032,77.7451789 L17.9493362,77.7451789 L17.9493362,80.306346 L20.5105032,80.306346" id="path4563" sketch:type="MSShapeGroup" channels="30"/>
            <path d="M23.4950037,80.306346 L23.4950037,77.7451789 L20.9338366,77.7451789 L20.9338366,80.306346 L23.4950037,80.306346" id="path4565" sketch:type="MSShapeGroup" channels="31"/>
            <path d="M2.58233374,77.3218455 L2.58233374,74.7606784 L0,74.7606784 L0,77.3218455 L2.58233374,77.3218455" id="path4567" sketch:type="MSShapeGroup" channels="32"/>
            <path d="M5.56683421,77.3218455 L5.56683421,74.7606784 L3.00566714,74.7606784 L3.00566714,77.3218455 L5.56683421,77.3218455" id="path4569" sketch:type="MSShapeGroup" channels="33"/>
            <path d="M8.55133468,77.3218455 L8.55133468,74.7606784 L5.99016761,74.7606784 L5.99016761,77.3218455 L8.55133468,77.3218455" id="path4571" sketch:type="MSShapeGroup" channels="34"/>
            <path d="M11.5358352,77.3218455 L11.5358352,74.7606784 L8.97466808,74.7606784 L8.97466808,77.3218455 L11.5358352,77.3218455" id="path4573" sketch:type="MSShapeGroup" channels="35"/>
            <path d="M14.5415023,77.3218455 L14.5415023,74.7606784 L11.9591686,74.7606784 L11.9591686,77.3218455 L14.5415023,77.3218455" id="path4575" sketch:type="MSShapeGroup" channels="36"/>
            <path d="M17.5260028,77.3218455 L17.5260028,74.7606784 L14.9648357,74.7606784 L14.9648357,77.3218455 L17.5260028,77.3218455" id="path4577" sketch:type="MSShapeGroup" channels="37"/>
            <path d="M20.5105032,77.3218455 L20.5105032,74.7606784 L17.9493362,74.7606784 L17.9493362,77.3218455 L20.5105032,77.3218455" id="path4579" sketch:type="MSShapeGroup" channels="38"/>
            <path d="M23.4950037,77.3218455 L23.4950037,74.7606784 L20.9338366,74.7606784 L20.9338366,77.3218455 L23.4950037,77.3218455" id="path4581" sketch:type="MSShapeGroup" channels="39"/>
            <path d="M2.58233374,74.337345 L2.58233374,71.7550113 L0,71.7550113 L0,74.337345 L2.58233374,74.337345" id="path4583" sketch:type="MSShapeGroup" channels="40"/>
            <path d="M5.56683421,74.337345 L5.56683421,71.7550113 L3.00566714,71.7550113 L3.00566714,74.337345 L5.56683421,74.337345" id="path4585" sketch:type="MSShapeGroup" channels="41"/>
            <path d="M8.55133468,74.337345 L8.55133468,71.7550113 L5.99016761,71.7550113 L5.99016761,74.337345 L8.55133468,74.337345" id="path4587" sketch:type="MSShapeGroup" channels="42"/>
            <path d="M11.5358352,74.337345 L11.5358352,71.7550113 L8.97466808,71.7550113 L8.97466808,74.337345 L11.5358352,74.337345" id="path4589" sketch:type="MSShapeGroup" channels="43"/>
            <path d="M14.5415023,74.337345 L14.5415023,71.7550113 L11.9591686,71.7550113 L11.9591686,74.337345 L14.5415023,74.337345" id="path4591" sketch:type="MSShapeGroup" channels="44"/>
            <path d="M17.5260028,74.337345 L17.5260028,71.7550113 L14.9648357,71.7550113 L14.9648357,74.337345 L17.5260028,74.337345" id="path4593" sketch:type="MSShapeGroup" channels="45"/>
            <path d="M20.5105032,74.337345 L20.5105032,71.7550113 L17.9493362,71.7550113 L17.9493362,74.337345 L20.5105032,74.337345" id="path4595" sketch:type="MSShapeGroup" channels="46"/>
            <path d="M23.4950037,74.337345 L23.4950037,71.7550113 L20.9338366,71.7550113 L20.9338366,74.337345 L23.4950037,74.337345" id="path4597" sketch:type="MSShapeGroup" channels="47"/>
            <path d="M2.58233374,71.3316779 L2.58233374,68.7705108 L0,68.7705108 L0,71.3316779 L2.58233374,71.3316779" id="path4599" sketch:type="MSShapeGroup" channels="48"/>
            <path d="M5.56683421,71.3316779 L5.56683421,68.7705108 L3.00566714,68.7705108 L3.00566714,71.3316779 L5.56683421,71.3316779" id="path4601" sketch:type="MSShapeGroup" channels="49"/>
            <path d="M8.55133468,71.3316779 L8.55133468,68.7705108 L5.99016761,68.7705108 L5.99016761,71.3316779 L8.55133468,71.3316779" id="path4603" sketch:type="MSShapeGroup" channels="50"/>
            <path d="M11.5358352,71.3316779 L11.5358352,68.7705108 L8.97466808,68.7705108 L8.97466808,71.3316779 L11.5358352,71.3316779" id="path4605" sketch:type="MSShapeGroup" channels="51"/>
            <path d="M14.5415023,71.3316779 L14.5415023,68.7705108 L11.9591686,68.7705108 L11.9591686,71.3316779 L14.5415023,71.3316779" id="path4607" sketch:type="MSShapeGroup" channels="52"/>
            <path d="M17.5260028,71.3316779 L17.5260028,68.7705108 L14.9648357,68.7705108 L14.9648357,71.3316779 L17.5260028,71.3316779" id="path4609" sketch:type="MSShapeGroup" channels="53"/>
            <path d="M20.5105032,71.3316779 L20.5105032,68.7705108 L17.9493362,68.7705108 L17.9493362,71.3316779 L20.5105032,71.3316779" id="path4611" sketch:type="MSShapeGroup" channels="54"/>
            <path d="M23.4950037,71.3316779 L23.4950037,68.7705108 L20.9338366,68.7705108 L20.9338366,71.3316779 L23.4950037,71.3316779" id="path4613" sketch:type="MSShapeGroup" channels="55"/>
            <path d="M2.58233374,68.3471774 L2.58233374,65.7860104 L0,65.7860104 L0,68.3471774 L2.58233374,68.3471774" id="path4615" sketch:type="MSShapeGroup" channels="56"/>
            <path d="M5.56683421,68.3471774 L5.56683421,65.7860104 L3.00566714,65.7860104 L3.00566714,68.3471774 L5.56683421,68.3471774" id="path4617" sketch:type="MSShapeGroup" channels="57"/>
            <path d="M8.55133468,68.3471774 L8.55133468,65.7860104 L5.99016761,65.7860104 L5.99016761,68.3471774 L8.55133468,68.3471774" id="path4619" sketch:type="MSShapeGroup" channels="58"/>
            <path d="M11.5358352,68.3471774 L11.5358352,65.7860104 L8.97466808,65.7860104 L8.97466808,68.3471774 L11.5358352,68.3471774" id="path4621" sketch:type="MSShapeGroup" channels="59"/>
            <path d="M14.5415023,68.3471774 L14.5415023,65.7860104 L11.9591686,65.7860104 L11.9591686,68.3471774 L14.5415023,68.3471774" id="path4623" sketch:type="MSShapeGroup" channels="60"/>
            <path d="M17.5260028,68.3471774 L17.5260028,65.7860104 L14.9648357,65.7860104 L14.9648357,68.3471774 L17.5260028,68.3471774" id="path4625" sketch:type="MSShapeGroup" channels="61"/>
            <path d="M20.5105032,68.3471774 L20.5105032,65.7860104 L17.9493362,65.7860104 L17.9493362,68.3471774 L20.5105032,68.3471774" id="path4627" sketch:type="MSShapeGroup" channels="62"/>
            <path d="M23.4950037,68.3471774 L23.4950037,65.7860104 L20.9338366,65.7860104 L20.9338366,68.3471774 L23.4950037,68.3471774" id="path4629" sketch:type="MSShapeGroup" channels="63"/>
            <path d="M2.58233374,65.362677 L2.58233374,62.8015099 L0,62.8015099 L0,65.362677 L2.58233374,65.362677" id="path4631" sketch:type="MSShapeGroup" channels="64"/>
            <path d="M5.56683421,65.362677 L5.56683421,62.8015099 L3.00566714,62.8015099 L3.00566714,65.362677 L5.56683421,65.362677" id="path4633" sketch:type="MSShapeGroup" channels="65"/>
            <path d="M8.55133468,65.362677 L8.55133468,62.8015099 L5.99016761,62.8015099 L5.99016761,65.362677 L8.55133468,65.362677" id="path4635" sketch:type="MSShapeGroup" channels="66"/>
            <path d="M11.5358352,65.362677 L11.5358352,62.8015099 L8.97466808,62.8015099 L8.97466808,65.362677 L11.5358352,65.362677" id="path4637" sketch:type="MSShapeGroup" channels="67"/>
            <path d="M14.5415023,65.362677 L14.5415023,62.8015099 L11.9591686,62.8015099 L11.9591686,65.362677 L14.5415023,65.362677" id="path4639" sketch:type="MSShapeGroup" channels="68"/>
            <path d="M17.5260028,65.362677 L17.5260028,62.8015099 L14.9648357,62.8015099 L14.9648357,65.362677 L17.5260028,65.362677" id="path4641" sketch:type="MSShapeGroup" channels="69"/>
            <path d="M20.5105032,65.362677 L20.5105032,62.8015099 L17.9493362,62.8015099 L17.9493362,65.362677 L20.5105032,65.362677" id="path4643" sketch:type="MSShapeGroup" channels="70"/>
            <path d="M23.4950037,65.362677 L23.4950037,62.8015099 L20.9338366,62.8015099 L20.9338366,65.362677 L23.4950037,65.362677" id="path4645" sketch:type="MSShapeGroup" channels="71"/>
            <path d="M2.58233374,62.3781765 L2.58233374,59.7958427 L0,59.7958427 L0,62.3781765 L2.58233374,62.3781765" id="path4647" sketch:type="MSShapeGroup" channels="72"/>
            <path d="M5.56683421,62.3781765 L5.56683421,59.7958427 L3.00566714,59.7958427 L3.00566714,62.3781765 L5.56683421,62.3781765" id="path4649" sketch:type="MSShapeGroup" channels="73"/>
            <path d="M8.55133468,62.3781765 L8.55133468,59.7958427 L5.99016761,59.7958427 L5.99016761,62.3781765 L8.55133468,62.3781765" id="path4651" sketch:type="MSShapeGroup" channels="74"/>
            <path d="M11.5358352,62.3781765 L11.5358352,59.7958427 L8.97466808,59.7958427 L8.97466808,62.3781765 L11.5358352,62.3781765" id="path4653" sketch:type="MSShapeGroup" channels="75"/>
            <path d="M14.5415023,62.3781765 L14.5415023,59.7958427 L11.9591686,59.7958427 L11.9591686,62.3781765 L14.5415023,62.3781765" id="path4655" sketch:type="MSShapeGroup" channels="76"/>
            <path d="M17.5260028,62.3781765 L17.5260028,59.7958427 L14.9648357,59.7958427 L14.9648357,62.3781765 L17.5260028,62.3781765" id="path4657" sketch:type="MSShapeGroup" channels="77"/>
            <path d="M20.5105032,62.3781765 L20.5105032,59.7958427 L17.9493362,59.7958427 L17.9493362,62.3781765 L20.5105032,62.3781765" id="path4659" sketch:type="MSShapeGroup" channels="78"/>
            <path d="M23.4950037,62.3781765 L23.4950037,59.7958427 L20.9338366,59.7958427 L20.9338366,62.3781765 L23.4950037,62.3781765" id="path4661" sketch:type="MSShapeGroup" channels="79"/>
            <path d="M2.58233374,59.3725094 L2.58233374,56.8113423 L0,56.8113423 L0,59.3725094 L2.58233374,59.3725094" id="path4663" sketch:type="MSShapeGroup" channels="80"/>
            <path d="M5.56683421,59.3725094 L5.56683421,56.8113423 L3.00566714,56.8113423 L3.00566714,59.3725094 L5.56683421,59.3725094" id="path4665" sketch:type="MSShapeGroup" channels="81"/>
            <path d="M8.55133468,59.3725094 L8.55133468,56.8113423 L5.99016761,56.8113423 L5.99016761,59.3725094 L8.55133468,59.3725094" id="path4667" sketch:type="MSShapeGroup" channels="82"/>
            <path d="M11.5358352,59.3725094 L11.5358352,56.8113423 L8.97466808,56.8113423 L8.97466808,59.3725094 L11.5358352,59.3725094" id="path4669" sketch:type="MSShapeGroup" channels="83"/>
            <path d="M14.5415023,59.3725094 L14.5415023,56.8113423 L11.9591686,56.8113423 L11.9591686,59.3725094 L14.5415023,59.3725094" id="path4671" sketch:type="MSShapeGroup" channels="84"/>
            <path d="M17.5260028,59.3725094 L17.5260028,56.8113423 L14.9648357,56.8113423 L14.9648357,59.3725094 L17.5260028,59.3725094" id="path4673" sketch:type="MSShapeGroup" channels="85"/>
            <path d="M20.5105032,59.3725094 L20.5105032,56.8113423 L17.9493362,56.8113423 L17.9493362,59.3725094 L20.5105032,59.3725094" id="path4675" sketch:type="MSShapeGroup" channels="86"/>
            <path d="M23.4950037,59.3725094 L23.4950037,56.8113423 L20.9338366,56.8113423 L20.9338366,59.3725094 L23.4950037,59.3725094" id="path4677" sketch:type="MSShapeGroup" channels="87"/>
            <path d="M2.58233374,56.3880089 L2.58233374,53.8268418 L0,53.8268418 L0,56.3880089 L2.58233374,56.3880089" id="path4679" sketch:type="MSShapeGroup" channels="88"/>
            <path d="M5.56683421,56.3880089 L5.56683421,53.8268418 L3.00566714,53.8268418 L3.00566714,56.3880089 L5.56683421,56.3880089" id="path4681" sketch:type="MSShapeGroup" channels="89"/>
            <path d="M8.55133468,56.3880089 L8.55133468,53.8268418 L5.99016761,53.8268418 L5.99016761,56.3880089 L8.55133468,56.3880089" id="path4683" sketch:type="MSShapeGroup" channels="90"/>
            <path d="M11.5358352,56.3880089 L11.5358352,53.8268418 L8.97466808,53.8268418 L8.97466808,56.3880089 L11.5358352,56.3880089" id="path4685" sketch:type="MSShapeGroup" channels="91"/>
            <path d="M14.5415023,56.3880089 L14.5415023,53.8268418 L11.9591686,53.8268418 L11.9591686,56.3880089 L14.5415023,56.3880089" id="path4687" sketch:type="MSShapeGroup" channels="92"/>
            <path d="M17.5260028,56.3880089 L17.5260028,53.8268418 L14.9648357,53.8268418 L14.9648357,56.3880089 L17.5260028,56.3880089" id="path4689" sketch:type="MSShapeGroup" channels="93"/>
            <path d="M20.5105032,56.3880089 L20.5105032,53.8268418 L17.9493362,53.8268418 L17.9493362,56.3880089 L20.5105032,56.3880089" id="path4691" sketch:type="MSShapeGroup" channels="94"/>
            <path d="M23.4950037,56.3880089 L23.4950037,53.8268418 L20.9338366,53.8268418 L20.9338366,56.3880089 L23.4950037,56.3880089" id="path4693" sketch:type="MSShapeGroup" channels="95"/>
            <path d="M2.58233374,53.4035084 L2.58233374,50.8423413 L0,50.8423413 L0,53.4035084 L2.58233374,53.4035084" id="path4695" sketch:type="MSShapeGroup" channels="96"/>
            <path d="M5.56683421,53.4035084 L5.56683421,50.8423413 L3.00566714,50.8423413 L3.00566714,53.4035084 L5.56683421,53.4035084" id="path4697" sketch:type="MSShapeGroup" channels="97"/>
            <path d="M8.55133468,53.4035084 L8.55133468,50.8423413 L5.99016761,50.8423413 L5.99016761,53.4035084 L8.55133468,53.4035084" id="path4699" sketch:type="MSShapeGroup" channels="98"/>
            <path d="M11.5358352,53.4035084 L11.5358352,50.8423413 L8.97466808,50.8423413 L8.97466808,53.4035084 L11.5358352,53.4035084" id="path4701" sketch:type="MSShapeGroup" channels="99"/>
            <path d="M14.5415023,53.4035084 L14.5415023,50.8423413 L11.9591686,50.8423413 L11.9591686,53.4035084 L14.5415023,53.4035084" id="path4703" sketch:type="MSShapeGroup" channels="100"/>
            <path d="M17.5260028,53.4035084 L17.5260028,50.8423413 L14.9648357,50.8423413 L14.9648357,53.4035084 L17.5260028,53.4035084" id="path4705" sketch:type="MSShapeGroup" channels="101"/>
            <path d="M20.5105032,53.4035084 L20.5105032,50.8423413 L17.9493362,50.8423413 L17.9493362,53.4035084 L20.5105032,53.4035084" id="path4707" sketch:type="MSShapeGroup" channels="102"/>
            <path d="M23.4950037,53.4035084 L23.4950037,50.8423413 L20.9338366,50.8423413 L20.9338366,53.4035084 L23.4950037,53.4035084" id="path4709" sketch:type="MSShapeGroup" channels="103"/>
            <path d="M2.58233374,50.4190079 L2.58233374,47.8366742 L0,47.8366742 L0,50.4190079 L2.58233374,50.4190079" id="path4711" sketch:type="MSShapeGroup" channels="104"/>
            <path d="M5.56683421,50.4190079 L5.56683421,47.8366742 L3.00566714,47.8366742 L3.00566714,50.4190079 L5.56683421,50.4190079" id="path4713" sketch:type="MSShapeGroup" channels="105"/>
            <path d="M8.55133468,50.4190079 L8.55133468,47.8366742 L5.99016761,47.8366742 L5.99016761,50.4190079 L8.55133468,50.4190079" id="path4715" sketch:type="MSShapeGroup" channels="106"/>
            <path d="M11.5358352,50.4190079 L11.5358352,47.8366742 L8.97466808,47.8366742 L8.97466808,50.4190079 L11.5358352,50.4190079" id="path4717" sketch:type="MSShapeGroup" channels="107"/>
            <path d="M14.5415023,50.4190079 L14.5415023,47.8366742 L11.9591686,47.8366742 L11.9591686,50.4190079 L14.5415023,50.4190079" id="path4719" sketch:type="MSShapeGroup" channels="108"/>
            <path d="M17.5260028,50.4190079 L17.5260028,47.8366742 L14.9648357,47.8366742 L14.9648357,50.4190079 L17.5260028,50.4190079" id="path4721" sketch:type="MSShapeGroup" channels="109"/>
            <path d="M20.5105032,50.4190079 L20.5105032,47.8366742 L17.9493362,47.8366742 L17.9493362,50.4190079 L20.5105032,50.4190079" id="path4723" sketch:type="MSShapeGroup" channels="110"/>
            <path d="M23.4950037,50.4190079 L23.4950037,47.8366742 L20.9338366,47.8366742 L20.9338366,50.4190079 L23.4950037,50.4190079" id="path4725" sketch:type="MSShapeGroup" channels="111"/>
            <path d="M2.58233374,47.4133408 L2.58233374,44.8521737 L0,44.8521737 L0,47.4133408 L2.58233374,47.4133408" id="path4727" sketch:type="MSShapeGroup" channels="112"/>
            <path d="M5.56683421,47.4133408 L5.56683421,44.8521737 L3.00566714,44.8521737 L3.00566714,47.4133408 L5.56683421,47.4133408" id="path4729" sketch:type="MSShapeGroup" channels="113"/>
            <path d="M8.55133468,47.4133408 L8.55133468,44.8521737 L5.99016761,44.8521737 L5.99016761,47.4133408 L8.55133468,47.4133408" id="path4731" sketch:type="MSShapeGroup" channels="114"/>
            <path d="M11.5358352,47.4133408 L11.5358352,44.8521737 L8.97466808,44.8521737 L8.97466808,47.4133408 L11.5358352,47.4133408" id="path4733" sketch:type="MSShapeGroup" channels="115"/>
            <path d="M14.5415023,47.4133408 L14.5415023,44.8521737 L11.9591686,44.8521737 L11.9591686,47.4133408 L14.5415023,47.4133408" id="path4735" sketch:type="MSShapeGroup" channels="116"/>
            <path d="M17.5260028,47.4133408 L17.5260028,44.8521737 L14.9648357,44.8521737 L14.9648357,47.4133408 L17.5260028,47.4133408" id="path4737" sketch:type="MSShapeGroup" channels="117"/>
            <path d="M20.5105032,47.4133408 L20.5105032,44.8521737 L17.9493362,44.8521737 L17.9493362,47.4133408 L20.5105032,47.4133408" id="path4739" sketch:type="MSShapeGroup" channels="118"/>
            <path d="M23.4950037,47.4133408 L23.4950037,44.8521737 L20.9338366,44.8521737 L20.9338366,47.4133408 L23.4950037,47.4133408" id="path4741" sketch:type="MSShapeGroup" channels="119"/>
            <path d="M2.58233374,44.4288403 L2.58233374,41.8676733 L0,41.8676733 L0,44.4288403 L2.58233374,44.4288403" id="path4743" sketch:type="MSShapeGroup" channels="120"/>
            <path d="M5.56683421,44.4288403 L5.56683421,41.8676733 L3.00566714,41.8676733 L3.00566714,44.4288403 L5.56683421,44.4288403" id="path4745" sketch:type="MSShapeGroup" channels="121"/>
            <path d="M8.55133468,44.4288403 L8.55133468,41.8676733 L5.99016761,41.8676733 L5.99016761,44.4288403 L8.55133468,44.4288403" id="path4747" sketch:type="MSShapeGroup" channels="122"/>
            <path d="M11.5358352,44.4288403 L11.5358352,41.8676733 L8.97466808,41.8676733 L8.97466808,44.4288403 L11.5358352,44.4288403" id="path4749" sketch:type="MSShapeGroup" channels="123"/>
            <path d="M14.5415023,44.4288403 L14.5415023,41.8676733 L11.9591686,41.8676733 L11.9591686,44.4288403 L14.5415023,44.4288403" id="path4751" sketch:type="MSShapeGroup" channels="124"/>
            <path d="M17.5260028,44.4288403 L17.5260028,41.8676733 L14.9648357,41.8676733 L14.9648357,44.4288403 L17.5260028,44.4288403" id="path4753" sketch:type="MSShapeGroup" channels="125"/>
            <path d="M20.5105032,44.4288403 L20.5105032,41.8676733 L17.9493362,41.8676733 L17.9493362,44.4288403 L20.5105032,44.4288403" id="path4755" sketch:type="MSShapeGroup" channels="126"/>
            <path d="M23.4950037,44.4288403 L23.4950037,41.8676733 L20.9338366,41.8676733 L20.9338366,44.4288403 L23.4950037,44.4288403" id="path4757" sketch:type="MSShapeGroup" channels="127"/>
            <path d="M2.58233374,41.4443399 L2.58233374,38.8831728 L0,38.8831728 L0,41.4443399 L2.58233374,41.4443399" id="path4759" sketch:type="MSShapeGroup" channels="128"/>
            <path d="M5.56683421,41.4443399 L5.56683421,38.8831728 L3.00566714,38.8831728 L3.00566714,41.4443399 L5.56683421,41.4443399" id="path4761" sketch:type="MSShapeGroup" channels="129"/>
            <path d="M8.55133468,41.4443399 L8.55133468,38.8831728 L5.99016761,38.8831728 L5.99016761,41.4443399 L8.55133468,41.4443399" id="path4763" sketch:type="MSShapeGroup" channels="130"/>
            <path d="M11.5358352,41.4443399 L11.5358352,38.8831728 L8.97466808,38.8831728 L8.97466808,41.4443399 L11.5358352,41.4443399" id="path4765" sketch:type="MSShapeGroup" channels="131"/>
            <path d="M14.5415023,41.4443399 L14.5415023,38.8831728 L11.9591686,38.8831728 L11.9591686,41.4443399 L14.5415023,41.4443399" id="path4767" sketch:type="MSShapeGroup" channels="132"/>
            <path d="M17.5260028,41.4443399 L17.5260028,38.8831728 L14.9648357,38.8831728 L14.9648357,41.4443399 L17.5260028,41.4443399" id="path4769" sketch:type="MSShapeGroup" channels="133"/>
            <path d="M20.5105032,41.4443399 L20.5105032,38.8831728 L17.9493362,38.8831728 L17.9493362,41.4443399 L20.5105032,41.4443399" id="path4771" sketch:type="MSShapeGroup" channels="134"/>
            <path d="M23.4950037,41.4443399 L23.4950037,38.8831728 L20.9338366,38.8831728 L20.9338366,41.4443399 L23.4950037,41.4443399" id="path4773" sketch:type="MSShapeGroup" channels="135"/>
            <path d="M2.58233374,38.4598394 L2.58233374,35.8775056 L0,35.8775056 L0,38.4598394 L2.58233374,38.4598394" id="path4775" sketch:type="MSShapeGroup" channels="136"/>
            <path d="M5.56683421,38.4598394 L5.56683421,35.8775056 L3.00566714,35.8775056 L3.00566714,38.4598394 L5.56683421,38.4598394" id="path4777" sketch:type="MSShapeGroup" channels="137"/>
            <path d="M8.55133468,38.4598394 L8.55133468,35.8775056 L5.99016761,35.8775056 L5.99016761,38.4598394 L8.55133468,38.4598394" id="path4779" sketch:type="MSShapeGroup" channels="138"/>
            <path d="M11.5358352,38.4598394 L11.5358352,35.8775056 L8.97466808,35.8775056 L8.97466808,38.4598394 L11.5358352,38.4598394" id="path4781" sketch:type="MSShapeGroup" channels="139"/>
            <path d="M14.5415023,38.4598394 L14.5415023,35.8775056 L11.9591686,35.8775056 L11.9591686,38.4598394 L14.5415023,38.4598394" id="path4783" sketch:type="MSShapeGroup" channels="140"/>
            <path d="M17.5260028,38.4598394 L17.5260028,35.8775056 L14.9648357,35.8775056 L14.9648357,38.4598394 L17.5260028,38.4598394" id="path4785" sketch:type="MSShapeGroup" channels="141"/>
            <path d="M20.5105032,38.4598394 L20.5105032,35.8775056 L17.9493362,35.8775056 L17.9493362,38.4598394 L20.5105032,38.4598394" id="path4787" sketch:type="MSShapeGroup" channels="142"/>
            <path d="M23.4950037,38.4598394 L23.4950037,35.8775056 L20.9338366,35.8775056 L20.9338366,38.4598394 L23.4950037,38.4598394" id="path4789" sketch:type="MSShapeGroup" channels="143"/>
            <path d="M2.58233374,35.4541722 L2.58233374,32.8930052 L0,32.8930052 L0,35.4541722 L2.58233374,35.4541722" id="path4791" sketch:type="MSShapeGroup" channels="144"/>
            <path d="M5.56683421,35.4541722 L5.56683421,32.8930052 L3.00566714,32.8930052 L3.00566714,35.4541722 L5.56683421,35.4541722" id="path4793" sketch:type="MSShapeGroup" channels="145"/>
            <path d="M8.55133468,35.4541722 L8.55133468,32.8930052 L5.99016761,32.8930052 L5.99016761,35.4541722 L8.55133468,35.4541722" id="path4795" sketch:type="MSShapeGroup" channels="146"/>
            <path d="M11.5358352,35.4541722 L11.5358352,32.8930052 L8.97466808,32.8930052 L8.97466808,35.4541722 L11.5358352,35.4541722" id="path4797" sketch:type="MSShapeGroup" channels="147"/>
            <path d="M14.5415023,35.4541722 L14.5415023,32.8930052 L11.9591686,32.8930052 L11.9591686,35.4541722 L14.5415023,35.4541722" id="path4799" sketch:type="MSShapeGroup" channels="148"/>
            <path d="M17.5260028,35.4541722 L17.5260028,32.8930052 L14.9648357,32.8930052 L14.9648357,35.4541722 L17.5260028,35.4541722" id="path4801" sketch:type="MSShapeGroup" channels="149"/>
            <path d="M20.5105032,35.4541722 L20.5105032,32.8930052 L17.9493362,32.8930052 L17.9493362,35.4541722 L20.5105032,35.4541722" id="path4803" sketch:type="MSShapeGroup" channels="150"/>
            <path d="M23.4950037,35.4541722 L23.4950037,32.8930052 L20.9338366,32.8930052 L20.9338366,35.4541722 L23.4950037,35.4541722" id="path4805" sketch:type="MSShapeGroup" channels="151"/>
            <path d="M2.58233374,32.4696718 L2.58233374,29.9085047 L0,29.9085047 L0,32.4696718 L2.58233374,32.4696718" id="path4807" sketch:type="MSShapeGroup" channels="152"/>
            <path d="M5.56683421,32.4696718 L5.56683421,29.9085047 L3.00566714,29.9085047 L3.00566714,32.4696718 L5.56683421,32.4696718" id="path4809" sketch:type="MSShapeGroup" channels="153"/>
            <path d="M8.55133468,32.4696718 L8.55133468,29.9085047 L5.99016761,29.9085047 L5.99016761,32.4696718 L8.55133468,32.4696718" id="path4811" sketch:type="MSShapeGroup" channels="154"/>
            <path d="M11.5358352,32.4696718 L11.5358352,29.9085047 L8.97466808,29.9085047 L8.97466808,32.4696718 L11.5358352,32.4696718" id="path4813" sketch:type="MSShapeGroup" channels="155"/>
            <path d="M14.5415023,32.4696718 L14.5415023,29.9085047 L11.9591686,29.9085047 L11.9591686,32.4696718 L14.5415023,32.4696718" id="path4815" sketch:type="MSShapeGroup" channels="156"/>
            <path d="M17.5260028,32.4696718 L17.5260028,29.9085047 L14.9648357,29.9085047 L14.9648357,32.4696718 L17.5260028,32.4696718" id="path4817" sketch:type="MSShapeGroup" channels="157"/>
            <path d="M20.5105032,32.4696718 L20.5105032,29.9085047 L17.9493362,29.9085047 L17.9493362,32.4696718 L20.5105032,32.4696718" id="path4819" sketch:type="MSShapeGroup" channels="158"/>
            <path d="M23.4950037,32.4696718 L23.4950037,29.9085047 L20.9338366,29.9085047 L20.9338366,32.4696718 L23.4950037,32.4696718" id="path4821" sketch:type="MSShapeGroup" channels="159"/>
            <path d="M2.58233374,29.4851713 L2.58233374,26.9240042 L0,26.9240042 L0,29.4851713 L2.58233374,29.4851713" id="path4823" sketch:type="MSShapeGroup" channels="160"/>
            <path d="M5.56683421,29.4851713 L5.56683421,26.9240042 L3.00566714,26.9240042 L3.00566714,29.4851713 L5.56683421,29.4851713" id="path4825" sketch:type="MSShapeGroup" channels="161"/>
            <path d="M8.55133468,29.4851713 L8.55133468,26.9240042 L5.99016761,26.9240042 L5.99016761,29.4851713 L8.55133468,29.4851713" id="path4827" sketch:type="MSShapeGroup" channels="162"/>
            <path d="M11.5358352,29.4851713 L11.5358352,26.9240042 L8.97466808,26.9240042 L8.97466808,29.4851713 L11.5358352,29.4851713" id="path4829" sketch:type="MSShapeGroup" channels="163"/>
            <path d="M14.5415023,29.4851713 L14.5415023,26.9240042 L11.9591686,26.9240042 L11.9591686,29.4851713 L14.5415023,29.4851713" id="path4831" sketch:type="MSShapeGroup" channels="164"/>
            <path d="M17.5260028,29.4851713 L17.5260028,26.9240042 L14.9648357,26.9240042 L14.9648357,29.4851713 L17.5260028,29.4851713" id="path4833" sketch:type="MSShapeGroup" channels="165"/>
            <path d="M20.5105032,29.4851713 L20.5105032,26.9240042 L17.9493362,26.9240042 L17.9493362,29.4851713 L20.5105032,29.4851713" id="path4835" sketch:type="MSShapeGroup" channels="166"/>
            <path d="M23.4950037,29.4851713 L23.4950037,26.9240042 L20.9338366,26.9240042 L20.9338366,29.4851713 L23.4950037,29.4851713" id="path4837" sketch:type="MSShapeGroup" channels="167"/>
            <path d="M2.58233374,26.5006708 L2.58233374,23.9183371 L0,23.9183371 L0,26.5006708 L2.58233374,26.5006708" id="path4839" sketch:type="MSShapeGroup" channels="168"/>
            <path d="M5.56683421,26.5006708 L5.56683421,23.9183371 L3.00566714,23.9183371 L3.00566714,26.5006708 L5.56683421,26.5006708" id="path4841" sketch:type="MSShapeGroup" channels="169"/>
            <path d="M8.55133468,26.5006708 L8.55133468,23.9183371 L5.99016761,23.9183371 L5.99016761,26.5006708 L8.55133468,26.5006708" id="path4843" sketch:type="MSShapeGroup" channels="170"/>
            <path d="M11.5358352,26.5006708 L11.5358352,23.9183371 L8.97466808,23.9183371 L8.97466808,26.5006708 L11.5358352,26.5006708" id="path4845" sketch:type="MSShapeGroup" channels="171"/>
            <path d="M14.5415023,26.5006708 L14.5415023,23.9183371 L11.9591686,23.9183371 L11.9591686,26.5006708 L14.5415023,26.5006708" id="path4847" sketch:type="MSShapeGroup" channels="172"/>
            <path d="M17.5260028,26.5006708 L17.5260028,23.9183371 L14.9648357,23.9183371 L14.9648357,26.5006708 L17.5260028,26.5006708" id="path4849" sketch:type="MSShapeGroup" channels="173"/>
            <path d="M20.5105032,26.5006708 L20.5105032,23.9183371 L17.9493362,23.9183371 L17.9493362,26.5006708 L20.5105032,26.5006708" id="path4851" sketch:type="MSShapeGroup" channels="174"/>
            <path d="M23.4950037,26.5006708 L23.4950037,23.9183371 L20.9338366,23.9183371 L20.9338366,26.5006708 L23.4950037,26.5006708" id="path4853" sketch:type="MSShapeGroup" channels="175"/>
            <path d="M2.58233374,23.4950037 L2.58233374,20.9338366 L0,20.9338366 L0,23.4950037 L2.58233374,23.4950037" id="path4855" sketch:type="MSShapeGroup" channels="176"/>
            <path d="M5.56683421,23.4950037 L5.56683421,20.9338366 L3.00566714,20.9338366 L3.00566714,23.4950037 L5.56683421,23.4950037" id="path4857" sketch:type="MSShapeGroup" channels="177"/>
            <path d="M8.55133468,23.4950037 L8.55133468,20.9338366 L5.99016761,20.9338366 L5.99016761,23.4950037 L8.55133468,23.4950037" id="path4859" sketch:type="MSShapeGroup" channels="178"/>
            <path d="M11.5358352,23.4950037 L11.5358352,20.9338366 L8.97466808,20.9338366 L8.97466808,23.4950037 L11.5358352,23.4950037" id="path4861" sketch:type="MSShapeGroup" channels="179"/>
            <path d="M14.5415023,23.4950037 L14.5415023,20.9338366 L11.9591686,20.9338366 L11.9591686,23.4950037 L14.5415023,23.4950037" id="path4863" sketch:type="MSShapeGroup" channels="180"/>
            <path d="M17.5260028,23.4950037 L17.5260028,20.9338366 L14.9648357,20.9338366 L14.9648357,23.4950037 L17.5260028,23.4950037" id="path4865" sketch:type="MSShapeGroup" channels="181"/>
            <path d="M20.5105032,23.4950037 L20.5105032,20.9338366 L17.9493362,20.9338366 L17.9493362,23.4950037 L20.5105032,23.4950037" id="path4867" sketch:type="MSShapeGroup" channels="182"/>
            <path d="M23.4950037,23.4950037 L23.4950037,20.9338366 L20.9338366,20.9338366 L20.9338366,23.4950037 L23.4950037,23.4950037" id="path4869" sketch:type="MSShapeGroup" channels="183"/>
            <path d="M2.58233374,20.5105032 L2.58233374,17.9493362 L0,17.9493362 L0,20.5105032 L2.58233374,20.5105032" id="path4871" sketch:type="MSShapeGroup" channels="184"/>
            <path d="M5.56683421,20.5105032 L5.56683421,17.9493362 L3.00566714,17.9493362 L3.00566714,20.5105032 L5.56683421,20.5105032" id="path4873" sketch:type="MSShapeGroup" channels="185"/>
            <path d="M8.55133468,20.5105032 L8.55133468,17.9493362 L5.99016761,17.9493362 L5.99016761,20.5105032 L8.55133468,20.5105032" id="path4875" sketch:type="MSShapeGroup" channels="186"/>
            <path d="M11.5358352,20.5105032 L11.5358352,17.9493362 L8.97466808,17.9493362 L8.97466808,20.5105032 L11.5358352,20.5105032" id="path4877" sketch:type="MSShapeGroup" channels="187"/>
            <path d="M14.5415023,20.5105032 L14.5415023,17.9493362 L11.9591686,17.9493362 L11.9591686,20.5105032 L14.5415023,20.5105032" id="path4879" sketch:type="MSShapeGroup" channels="188"/>
            <path d="M17.5260028,20.5105032 L17.5260028,17.9493362 L14.9648357,17.9493362 L14.9648357,20.5105032 L17.5260028,20.5105032" id="path4881" sketch:type="MSShapeGroup" channels="189"/>
            <path d="M20.5105032,20.5105032 L20.5105032,17.9493362 L17.9493362,17.9493362 L17.9493362,20.5105032 L20.5105032,20.5105032" id="path4883" sketch:type="MSShapeGroup" channels="190"/>
            <path d="M23.4950037,20.5105032 L23.4950037,17.9493362 L20.9338366,17.9493362 L20.9338366,20.5105032 L23.4950037,20.5105032" id="path4885" sketch:type="MSShapeGroup" channels="191"/>
            <path d="M2.58233374,17.5260028 L2.58233374,14.9648357 L0,14.9648357 L0,17.5260028 L2.58233374,17.5260028" id="path4887" sketch:type="MSShapeGroup" channels="192"/>
            <path d="M5.56683421,17.5260028 L5.56683421,14.9648357 L3.00566714,14.9648357 L3.00566714,17.5260028 L5.56683421,17.5260028" id="path4889" sketch:type="MSShapeGroup" channels="193"/>
            <path d="M8.55133468,17.5260028 L8.55133468,14.9648357 L5.99016761,14.9648357 L5.99016761,17.5260028 L8.55133468,17.5260028" id="path4891" sketch:type="MSShapeGroup" channels="194"/>
            <path d="M11.5358352,17.5260028 L11.5358352,14.9648357 L8.97466808,14.9648357 L8.97466808,17.5260028 L11.5358352,17.5260028" id="path4893" sketch:type="MSShapeGroup" channels="195"/>
            <path d="M14.5415023,17.5260028 L14.5415023,14.9648357 L11.9591686,14.9648357 L11.9591686,17.5260028 L14.5415023,17.5260028" id="path4895" sketch:type="MSShapeGroup" channels="196"/>
            <path d="M17.5260028,17.5260028 L17.5260028,14.9648357 L14.9648357,14.9648357 L14.9648357,17.5260028 L17.5260028,17.5260028" id="path4897" sketch:type="MSShapeGroup" channels="197"/>
            <path d="M20.5105032,17.5260028 L20.5105032,14.9648357 L17.9493362,14.9648357 L17.9493362,17.5260028 L20.5105032,17.5260028" id="path4899" sketch:type="MSShapeGroup" channels="198"/>
            <path d="M23.4950037,17.5260028 L23.4950037,14.9648357 L20.9338366,14.9648357 L20.9338366,17.5260028 L23.4950037,17.5260028" id="path4901" sketch:type="MSShapeGroup" channels="199"/>
            <path d="M2.58233374,14.5203356 L2.58233374,11.9591685 L0,11.9591685 L0,14.5203356 L2.58233374,14.5203356" id="path4903" sketch:type="MSShapeGroup" channels="200"/>
            <path d="M5.56683421,14.5203356 L5.56683421,11.9591685 L3.00566714,11.9591685 L3.00566714,14.5203356 L5.56683421,14.5203356" id="path4905" sketch:type="MSShapeGroup" channels="201"/>
            <path d="M8.55133468,14.5203356 L8.55133468,11.9591685 L5.99016761,11.9591685 L5.99016761,14.5203356 L8.55133468,14.5203356" id="path4907" sketch:type="MSShapeGroup" channels="202"/>
            <path d="M11.5358352,14.5203356 L11.5358352,11.9591685 L8.97466808,11.9591685 L8.97466808,14.5203356 L11.5358352,14.5203356" id="path4909" sketch:type="MSShapeGroup" channels="203"/>
            <path d="M14.5415023,14.5203356 L14.5415023,11.9591685 L11.9591686,11.9591685 L11.9591686,14.5203356 L14.5415023,14.5203356" id="path4911" sketch:type="MSShapeGroup" channels="204"/>
            <path d="M17.5260028,14.5203356 L17.5260028,11.9591685 L14.9648357,11.9591685 L14.9648357,14.5203356 L17.5260028,14.5203356" id="path4913" sketch:type="MSShapeGroup" channels="205"/>
            <path d="M20.5105032,14.5203356 L20.5105032,11.9591685 L17.9493362,11.9591685 L17.9493362,14.5203356 L20.5105032,14.5203356" id="path4915" sketch:type="MSShapeGroup" channels="206"/>
            <path d="M23.4950037,14.5203356 L23.4950037,11.9591685 L20.9338366,11.9591685 L20.9338366,14.5203356 L23.4950037,14.5203356" id="path4917" sketch:type="MSShapeGroup" channels="207"/>
            <path d="M2.58233374,11.5358351 L2.58233374,8.97466808 L0,8.97466808 L0,11.5358351 L2.58233374,11.5358351" id="path4919" sketch:type="MSShapeGroup" channels="208"/>
            <path d="M5.56683421,11.5358351 L5.56683421,8.97466808 L3.00566714,8.97466808 L3.00566714,11.5358351 L5.56683421,11.5358351" id="path4921" sketch:type="MSShapeGroup" channels="209"/>
            <path d="M8.55133468,11.5358351 L8.55133468,8.97466808 L5.99016761,8.97466808 L5.99016761,11.5358351 L8.55133468,11.5358351" id="path4923" sketch:type="MSShapeGroup" channels="210"/>
            <path d="M11.5358352,11.5358351 L11.5358352,8.97466808 L8.97466808,8.97466808 L8.97466808,11.5358351 L11.5358352,11.5358351" id="path4925" sketch:type="MSShapeGroup" channels="211"/>
            <path d="M14.5415023,11.5358351 L14.5415023,8.97466808 L11.9591686,8.97466808 L11.9591686,11.5358351 L14.5415023,11.5358351" id="path4927" sketch:type="MSShapeGroup" channels="212"/>
            <path d="M17.5260028,11.5358351 L17.5260028,8.97466808 L14.9648357,8.97466808 L14.9648357,11.5358351 L17.5260028,11.5358351" id="path4929" sketch:type="MSShapeGroup" channels="213"/>
            <path d="M20.5105032,11.5358351 L20.5105032,8.97466808 L17.9493362,8.97466808 L17.9493362,11.5358351 L20.5105032,11.5358351" id="path4931" sketch:type="MSShapeGroup" channels="214"/>
            <path d="M23.4950037,11.5358351 L23.4950037,8.97466808 L20.9338366,8.97466808 L20.9338366,11.5358351 L23.4950037,11.5358351" id="path4933" sketch:type="MSShapeGroup" channels="215"/>
            <path d="M2.58233374,8.55133468 L2.58233374,5.99016761 L0,5.99016761 L0,8.55133468 L2.58233374,8.55133468" id="path4935" sketch:type="MSShapeGroup" channels="216"/>
            <path d="M5.56683421,8.55133468 L5.56683421,5.99016761 L3.00566714,5.99016761 L3.00566714,8.55133468 L5.56683421,8.55133468" id="path4937" sketch:type="MSShapeGroup" channels="217"/>
            <path d="M8.55133468,8.55133468 L8.55133468,5.99016761 L5.99016761,5.99016761 L5.99016761,8.55133468 L8.55133468,8.55133468" id="path4939" sketch:type="MSShapeGroup" channels="218"/>
            <path d="M11.5358352,8.55133468 L11.5358352,5.99016761 L8.97466808,5.99016761 L8.97466808,8.55133468 L11.5358352,8.55133468" id="path4941" sketch:type="MSShapeGroup" channels="219"/>
            <path d="M14.5415023,8.55133468 L14.5415023,5.99016761 L11.9591686,5.99016761 L11.9591686,8.55133468 L14.5415023,8.55133468" id="path4943" sketch:type="MSShapeGroup" channels="220"/>
            <path d="M17.5260028,8.55133468 L17.5260028,5.99016761 L14.9648357,5.99016761 L14.9648357,8.55133468 L17.5260028,8.55133468" id="path4945" sketch:type="MSShapeGroup" channels="221"/>
            <path d="M20.5105032,8.55133468 L20.5105032,5.99016761 L17.9493362,5.99016761 L17.9493362,8.55133468 L20.5105032,8.55133468" id="path4947" sketch:type="MSShapeGroup" channels="222"/>
            <path d="M23.4950037,8.55133468 L23.4950037,5.99016761 L20.9338366,5.99016761 L20.9338366,8.55133468 L23.4950037,8.55133468" id="path4949" sketch:type="MSShapeGroup" channels="223"/>
            <path d="M2.58233374,5.56683421 L2.58233374,3.00566714 L0,3.00566714 L0,5.56683421 L2.58233374,5.56683421" id="path4951" sketch:type="MSShapeGroup" channels="224"/>
            <path d="M5.56683421,5.56683421 L5.56683421,3.00566714 L3.00566714,3.00566714 L3.00566714,5.56683421 L5.56683421,5.56683421" id="path4953" sketch:type="MSShapeGroup" channels="225"/>
            <path d="M8.55133468,5.56683421 L8.55133468,3.00566714 L5.99016761,3.00566714 L5.99016761,5.56683421 L8.55133468,5.56683421" id="path4955" sketch:type="MSShapeGroup" channels="226"/>
            <path d="M11.5358352,5.56683421 L11.5358352,3.00566714 L8.97466808,3.00566714 L8.97466808,5.56683421 L11.5358352,5.56683421" id="path4957" sketch:type="MSShapeGroup" channels="227"/>
            <path d="M14.5415023,5.56683421 L14.5415023,3.00566714 L11.9591686,3.00566714 L11.9591686,5.56683421 L14.5415023,5.56683421" id="path4959" sketch:type="MSShapeGroup" channels="228"/>
            <path d="M17.5260028,5.56683421 L17.5260028,3.00566714 L14.9648357,3.00566714 L14.9648357,5.56683421 L17.5260028,5.56683421" id="path4961" sketch:type="MSShapeGroup" channels="229"/>
            <path d="M20.5105032,5.56683421 L20.5105032,3.00566714 L17.9493362,3.00566714 L17.9493362,5.56683421 L20.5105032,5.56683421" id="path4963" sketch:type="MSShapeGroup" channels="230"/>
            <path d="M23.4950037,5.56683421 L23.4950037,3.00566714 L20.9338366,3.00566714 L20.9338366,5.56683421 L23.4950037,5.56683421" id="path4965" sketch:type="MSShapeGroup" channels="231"/>
            <path d="M2.58233374,2.56116707 L2.58233374,0 L0,0 L0,2.56116707 L2.58233374,2.56116707" id="path4967" sketch:type="MSShapeGroup" channels="232"/>
            <path d="M5.56683421,2.56116707 L5.56683421,0 L3.00566714,0 L3.00566714,2.56116707 L5.56683421,2.56116707" id="path4969" sketch:type="MSShapeGroup" channels="233"/>
            <path d="M8.55133468,2.56116707 L8.55133468,0 L5.99016761,0 L5.99016761,2.56116707 L8.55133468,2.56116707" id="path4971" sketch:type="MSShapeGroup" channels="234"/>
            <path d="M11.5358352,2.56116707 L11.5358352,0 L8.97466808,0 L8.97466808,2.56116707 L11.5358352,2.56116707" id="path4973" sketch:type="MSShapeGroup" channels="235"/>
            <path d="M14.5415023,2.56116707 L14.5415023,0 L11.9591686,0 L11.9591686,2.56116707 L14.5415023,2.56116707" id="path4975" sketch:type="MSShapeGroup" channels="236"/>
            <path d="M17.5260028,2.56116707 L17.5260028,0 L14.9648357,0 L14.9648357,2.56116707 L17.5260028,2.56116707" id="path4977" sketch:type="MSShapeGroup" channels="237"/>
            <path d="M20.5105032,2.56116707 L20.5105032,0 L17.9493362,0 L17.9493362,2.56116707 L20.5105032,2.56116707" id="path4979" sketch:type="MSShapeGroup" channels="238"/>
            <path d="M23.4950037,2.56116707 L23.4950037,0 L20.9338366,0 L20.9338366,2.56116707 L23.4950037,2.56116707" id="path4981" sketch:type="MSShapeGroup" channels="239"/>
        </g>
</svg>